<mxfile host="Electron" agent="Mozilla/5.0 (Windows NT 10.0; Win64; x64) AppleWebKit/537.36 (KHTML, like Gecko) draw.io/26.0.16 Chrome/132.0.6834.196 Electron/34.2.0 Safari/537.36" version="26.0.16">
  <diagram name="Page-1" id="XzBX--KxiSKn9QDhiKy9">
    <mxGraphModel dx="1219" dy="713" grid="1" gridSize="10" guides="1" tooltips="1" connect="1" arrows="1" fold="1" page="0" pageScale="1" pageWidth="850" pageHeight="1100" background="#FFFFFF" math="0" shadow="0">
      <root>
        <mxCell id="0" />
        <mxCell id="1" parent="0" />
        <mxCell id="LoPqnKo1-DcQAiSw49yI-1" value="&lt;b&gt;&lt;font style=&quot;font-size: 25px;&quot;&gt;Data Flow Diagram&lt;/font&gt;&lt;/b&gt;" style="text;html=1;align=center;verticalAlign=middle;whiteSpace=wrap;rounded=0;" parent="1" vertex="1">
          <mxGeometry x="20" y="160" width="280" height="30" as="geometry" />
        </mxCell>
        <mxCell id="LoPqnKo1-DcQAiSw49yI-3" value="" style="rounded=1;whiteSpace=wrap;html=1;dashed=1;" parent="1" vertex="1">
          <mxGeometry x="180" y="290" width="120" height="430" as="geometry" />
        </mxCell>
        <mxCell id="LoPqnKo1-DcQAiSw49yI-4" value="&lt;font style=&quot;font-size: 20px;&quot;&gt;&lt;b style=&quot;&quot;&gt;Sources&lt;/b&gt;&lt;/font&gt;" style="rounded=1;whiteSpace=wrap;html=1;fillColor=default;strokeColor=none;glass=0;" parent="1" vertex="1">
          <mxGeometry x="195.86" y="273" width="90" height="30" as="geometry" />
        </mxCell>
        <mxCell id="LoPqnKo1-DcQAiSw49yI-5" value="" style="image;aspect=fixed;html=1;points=[];align=center;fontSize=12;image=img/lib/azure2/general/Folder_Blank.svg;" parent="1" vertex="1">
          <mxGeometry x="218.21000000000004" y="410" width="49.29" height="40" as="geometry" />
        </mxCell>
        <mxCell id="LoPqnKo1-DcQAiSw49yI-7" value="" style="image;aspect=fixed;html=1;points=[];align=center;fontSize=12;image=img/lib/azure2/general/Folder_Blank.svg;" parent="1" vertex="1">
          <mxGeometry x="215.35000000000002" y="580" width="49.29" height="40" as="geometry" />
        </mxCell>
        <mxCell id="LoPqnKo1-DcQAiSw49yI-8" value="&lt;b&gt;CRM&lt;/b&gt;" style="text;html=1;align=center;verticalAlign=middle;whiteSpace=wrap;rounded=0;" parent="1" vertex="1">
          <mxGeometry x="207.5" y="450" width="60" height="30" as="geometry" />
        </mxCell>
        <mxCell id="LoPqnKo1-DcQAiSw49yI-9" value="&lt;b&gt;ERP&lt;/b&gt;" style="text;html=1;align=center;verticalAlign=middle;whiteSpace=wrap;rounded=0;" parent="1" vertex="1">
          <mxGeometry x="210" y="620" width="60" height="30" as="geometry" />
        </mxCell>
        <mxCell id="LoPqnKo1-DcQAiSw49yI-10" value="" style="rounded=0;whiteSpace=wrap;html=1;dashed=1;dashPattern=8 8;" parent="1" vertex="1">
          <mxGeometry x="360" y="330" width="150" height="390" as="geometry" />
        </mxCell>
        <mxCell id="LoPqnKo1-DcQAiSw49yI-11" value="&lt;b&gt;&lt;font style=&quot;font-size: 16px;&quot;&gt;Bronze Layer&lt;/font&gt;&lt;/b&gt;" style="rounded=0;whiteSpace=wrap;html=1;strokeColor=#d79b00;fillColor=#ffe6cc;" parent="1" vertex="1">
          <mxGeometry x="360" y="280" width="150" height="40" as="geometry" />
        </mxCell>
        <mxCell id="LoPqnKo1-DcQAiSw49yI-13" value="&lt;font style=&quot;font-size: 15px;&quot;&gt;crm_sales_info&lt;/font&gt;" style="rounded=1;whiteSpace=wrap;html=1;fillColor=#ffe6cc;strokeColor=#d79b00;" parent="1" vertex="1">
          <mxGeometry x="370" y="360" width="130" height="40" as="geometry" />
        </mxCell>
        <mxCell id="LoPqnKo1-DcQAiSw49yI-14" value="&lt;font style=&quot;font-size: 15px;&quot;&gt;crm_cust_info&lt;/font&gt;" style="rounded=1;whiteSpace=wrap;html=1;fillColor=#ffe6cc;strokeColor=#d79b00;" parent="1" vertex="1">
          <mxGeometry x="370" y="411" width="130" height="40" as="geometry" />
        </mxCell>
        <mxCell id="LoPqnKo1-DcQAiSw49yI-15" value="&lt;font style=&quot;font-size: 15px;&quot;&gt;crm_prd_info&lt;/font&gt;" style="rounded=1;whiteSpace=wrap;html=1;fillColor=#ffe6cc;strokeColor=#d79b00;" parent="1" vertex="1">
          <mxGeometry x="370" y="460" width="130" height="40" as="geometry" />
        </mxCell>
        <mxCell id="LoPqnKo1-DcQAiSw49yI-16" value="&lt;font style=&quot;font-size: 15px;&quot;&gt;erp_cust_az12&lt;/font&gt;" style="rounded=1;whiteSpace=wrap;html=1;fillColor=#ffe6cc;strokeColor=#d79b00;" parent="1" vertex="1">
          <mxGeometry x="370" y="530" width="130" height="40" as="geometry" />
        </mxCell>
        <mxCell id="LoPqnKo1-DcQAiSw49yI-17" value="&lt;font style=&quot;font-size: 15px;&quot;&gt;erp_loc_a101&lt;/font&gt;" style="rounded=1;whiteSpace=wrap;html=1;fillColor=#ffe6cc;strokeColor=#d79b00;" parent="1" vertex="1">
          <mxGeometry x="370" y="580" width="130" height="40" as="geometry" />
        </mxCell>
        <mxCell id="LoPqnKo1-DcQAiSw49yI-18" value="&lt;font style=&quot;font-size: 15px;&quot;&gt;erp_px_cat_g1v2&lt;/font&gt;" style="rounded=1;whiteSpace=wrap;html=1;fillColor=#ffe6cc;strokeColor=#d79b00;" parent="1" vertex="1">
          <mxGeometry x="370" y="630" width="130" height="40" as="geometry" />
        </mxCell>
        <mxCell id="LoPqnKo1-DcQAiSw49yI-19" value="" style="endArrow=classic;html=1;rounded=0;exitX=0.974;exitY=0.519;exitDx=0;exitDy=0;exitPerimeter=0;entryX=0;entryY=0.5;entryDx=0;entryDy=0;" parent="1" source="LoPqnKo1-DcQAiSw49yI-5" target="LoPqnKo1-DcQAiSw49yI-14" edge="1">
          <mxGeometry width="50" height="50" relative="1" as="geometry">
            <mxPoint x="590" y="700" as="sourcePoint" />
            <mxPoint x="640" y="650" as="targetPoint" />
          </mxGeometry>
        </mxCell>
        <mxCell id="LoPqnKo1-DcQAiSw49yI-23" value="" style="endArrow=classic;html=1;rounded=0;" parent="1" edge="1">
          <mxGeometry width="50" height="50" relative="1" as="geometry">
            <mxPoint x="320" y="430" as="sourcePoint" />
            <mxPoint x="370" y="380" as="targetPoint" />
            <Array as="points">
              <mxPoint x="320" y="380" />
            </Array>
          </mxGeometry>
        </mxCell>
        <mxCell id="LoPqnKo1-DcQAiSw49yI-24" value="" style="endArrow=classic;html=1;rounded=0;entryX=0;entryY=0.5;entryDx=0;entryDy=0;" parent="1" target="LoPqnKo1-DcQAiSw49yI-15" edge="1">
          <mxGeometry width="50" height="50" relative="1" as="geometry">
            <mxPoint x="320" y="430" as="sourcePoint" />
            <mxPoint x="420" y="460" as="targetPoint" />
            <Array as="points">
              <mxPoint x="320" y="480" />
            </Array>
          </mxGeometry>
        </mxCell>
        <mxCell id="LoPqnKo1-DcQAiSw49yI-25" value="" style="endArrow=classic;html=1;rounded=0;exitX=1.028;exitY=0.5;exitDx=0;exitDy=0;exitPerimeter=0;entryX=0;entryY=0.5;entryDx=0;entryDy=0;" parent="1" source="LoPqnKo1-DcQAiSw49yI-7" target="LoPqnKo1-DcQAiSw49yI-17" edge="1">
          <mxGeometry width="50" height="50" relative="1" as="geometry">
            <mxPoint x="370" y="590" as="sourcePoint" />
            <mxPoint x="420" y="540" as="targetPoint" />
          </mxGeometry>
        </mxCell>
        <mxCell id="LoPqnKo1-DcQAiSw49yI-26" value="" style="endArrow=classic;html=1;rounded=0;" parent="1" target="LoPqnKo1-DcQAiSw49yI-16" edge="1">
          <mxGeometry width="50" height="50" relative="1" as="geometry">
            <mxPoint x="320" y="600" as="sourcePoint" />
            <mxPoint x="420" y="540" as="targetPoint" />
            <Array as="points">
              <mxPoint x="320" y="550" />
            </Array>
          </mxGeometry>
        </mxCell>
        <mxCell id="LoPqnKo1-DcQAiSw49yI-27" value="" style="endArrow=classic;html=1;rounded=0;entryX=0;entryY=0.5;entryDx=0;entryDy=0;" parent="1" target="LoPqnKo1-DcQAiSw49yI-18" edge="1">
          <mxGeometry width="50" height="50" relative="1" as="geometry">
            <mxPoint x="320" y="600" as="sourcePoint" />
            <mxPoint x="420" y="580" as="targetPoint" />
            <Array as="points">
              <mxPoint x="320" y="650" />
            </Array>
          </mxGeometry>
        </mxCell>
      </root>
    </mxGraphModel>
  </diagram>
</mxfile>
